<?xml version="1.0" standalone="no"?>
<!DOCTYPE svg PUBLIC "-//W3C//DTD SVG 20010904//EN"
 "http://www.w3.org/TR/2001/REC-SVG-20010904/DTD/svg10.dtd">
<svg version="1.0" xmlns="http://www.w3.org/2000/svg"
 width="1024.000000pt" height="1024.000000pt" viewBox="0 0 1024.000000 1024.000000"
 preserveAspectRatio="xMidYMid meet">
<metadata>
Created by potrace 1.14, written by Peter Selinger 2001-2017
</metadata>
<g transform="translate(0.000000,1024.000000) scale(0.100000,-0.100000)"
fill="#000000" stroke="none">
<path d="M0 7737 c0 -1377 3 -2506 6 -2510 3 -3 12 -3 20 0 12 4 11 8 -3 19
-10 8 -13 13 -6 14 7 0 10 7 7 18 -5 14 -4 14 4 2 6 -8 9 -17 7 -20 -2 -4 2
-7 10 -7 9 0 13 8 11 21 -4 24 10 56 25 56 6 0 7 -4 4 -10 -3 -5 -1 -10 4 -10
6 0 11 6 11 13 0 8 4 7 11 -3 9 -13 10 -13 6 0 -6 24 -37 24 -64 -2 -25 -22
-25 -22 -12 -1 17 28 58 48 73 33 20 -20 26 -9 6 12 -18 20 -19 24 -6 34 9 6
13 14 9 18 -4 4 0 4 10 0 18 -7 22 -23 9 -40 -4 -5 0 -1 10 8 9 10 22 18 30
19 7 0 3 4 -10 9 -26 11 -29 28 -6 37 8 3 20 17 25 30 5 13 13 21 19 18 7 -4
7 -12 0 -25 -7 -13 -7 -21 2 -26 6 -4 8 -3 4 4 -3 6 1 17 9 26 9 8 11 17 5 21
-6 4 -5 15 2 30 6 13 15 22 20 18 6 -3 5 4 -1 16 -13 23 -3 28 18 9 8 -8 11
-8 8 -2 -4 7 -1 17 7 23 11 9 15 9 19 -1 4 -9 6 -7 6 4 1 9 7 19 13 22 7 3 1
3 -15 0 -22 -5 -27 -3 -27 12 0 16 2 16 10 4 7 -12 10 -11 17 5 9 24 35 26 45
5 5 -12 7 -11 8 5 2 11 2 24 1 29 -1 5 5 6 13 3 9 -4 13 0 12 11 -2 9 -9 18
-17 20 -11 3 -11 1 1 -7 12 -9 11 -11 -8 -11 -20 0 -21 3 -12 20 6 11 18 20
28 20 15 0 15 2 2 10 -13 9 -13 10 0 10 8 0 20 10 25 23 6 12 16 21 23 20 7
-2 9 4 5 14 -4 11 -3 14 5 9 7 -4 12 -1 12 9 0 10 -5 13 -12 9 -7 -4 -8 -3 -4
4 5 9 13 9 26 2 11 -6 21 -6 24 -1 4 5 0 11 -6 14 -7 2 -10 8 -6 12 4 4 15 2
25 -6 15 -12 16 -12 10 4 -4 10 -7 21 -7 23 0 3 -4 3 -9 0 -5 -4 -8 2 -6 11 2
10 4 21 4 25 1 5 7 7 14 5 6 -1 12 5 11 13 -1 10 8 16 20 17 12 1 15 -1 9 -4
-7 -3 -12 -14 -12 -26 1 -18 2 -19 6 -4 3 11 11 16 19 13 17 -6 16 24 -1 36
-5 4 0 8 12 8 12 0 23 -6 25 -12 3 -7 9 2 16 19 9 27 8 31 -4 26 -8 -3 -13
-12 -10 -20 4 -8 1 -11 -5 -8 -6 4 -8 13 -5 20 2 7 -1 18 -7 24 -8 8 -7 14 2
24 9 7 11 7 8 1 -11 -19 26 -27 39 -10 6 9 13 14 15 12 2 -2 11 3 19 12 13 14
12 15 -3 9 -12 -4 -16 -3 -11 4 4 6 0 16 -7 21 -10 6 -7 7 10 3 18 -5 22 -4
16 6 -6 9 -3 11 8 6 10 -4 17 -1 18 6 1 7 2 17 4 22 1 6 3 17 3 25 1 9 11 16
22 16 26 0 25 -11 -2 -23 -21 -9 -21 -10 -3 -17 11 -4 16 -4 12 0 -4 4 1 13
10 19 13 10 14 16 6 26 -8 10 -5 22 8 44 20 32 26 27 8 -8 -10 -21 -9 -21 10
2 12 12 18 28 14 34 -3 5 -1 7 5 4 5 -4 8 -17 6 -30 -2 -12 -1 -15 2 -7 4 8
11 23 16 33 5 9 5 17 1 16 -19 -3 -33 2 -33 12 0 6 9 9 19 6 15 -4 19 0 16 14
-2 11 0 17 6 14 5 -4 9 -2 9 4 0 6 7 8 15 5 8 -4 15 -1 15 5 0 6 -8 11 -17 12
-11 0 -13 3 -5 6 6 2 12 11 12 18 0 20 39 26 50 7 5 -10 10 -12 10 -5 0 6 -4
15 -10 18 -14 8 -13 36 1 32 6 -1 13 8 14 21 2 29 20 46 39 39 13 -5 16 -22
16 -78 0 -54 3 -70 13 -66 7 3 13 -3 13 -13 0 -10 -4 -16 -8 -14 -4 3 -8 -2
-8 -11 0 -9 4 -13 10 -10 5 3 10 -3 10 -15 0 -12 -4 -19 -9 -15 -5 3 -13 0
-17 -6 -4 -8 -3 -9 5 -5 6 4 14 0 17 -8 3 -9 9 -14 13 -11 4 2 8 -2 8 -10 0
-8 -3 -12 -7 -10 -4 2 -7 -2 -7 -10 0 -8 4 -12 9 -9 4 3 8 4 9 2 0 -2 3 -48 6
-103 3 -55 10 -106 17 -114 8 -12 8 -13 -1 -7 -7 4 -13 3 -13 -3 0 -5 6 -12
13 -14 10 -4 10 -6 0 -6 -7 -1 -13 -6 -13 -12 0 -5 6 -7 12 -3 11 6 11 4 1 -7
-15 -16 -17 -33 -3 -24 6 4 10 -19 11 -62 1 -79 6 -186 10 -193 4 -8 6 -57 9
-175 2 -61 8 -116 14 -124 8 -11 8 -15 -2 -19 -8 -2 -10 -8 -4 -15 5 -7 12
-120 16 -252 4 -132 8 -256 11 -275 5 -43 16 -179 20 -240 2 -25 6 -87 10
-139 4 -57 2 -120 -5 -164 -7 -39 -13 -118 -13 -176 -1 -156 13 -809 18 -861
2 -25 5 -141 6 -258 2 -314 28 -414 129 -505 81 -73 220 -103 430 -93 69 3
144 5 166 6 l42 0 -8 33 c-5 17 -13 46 -17 62 l-9 30 -285 3 -284 2 0 895 0
895 735 3 735 2 0 -237 0 -238 -437 0 -438 0 0 -275 c0 -151 -3 -275 -7 -275
-5 0 -62 52 -127 115 -66 64 -121 113 -124 111 -8 -9 38 -77 101 -149 107
-122 408 -420 507 -502 79 -66 233 -183 315 -241 71 -50 167 -114 171 -114 3
0 26 -15 52 -32 26 -18 56 -38 67 -44 11 -6 47 -25 80 -44 107 -59 150 -83
165 -91 28 -14 255 -121 275 -130 11 -4 51 -22 88 -38 38 -17 72 -31 77 -31 5
0 24 -6 42 -14 33 -14 87 -35 156 -60 20 -7 71 -23 112 -36 41 -12 86 -27 100
-33 14 -5 50 -16 80 -23 97 -23 183 -45 260 -64 158 -40 344 -61 549 -62 187
-1 372 6 436 17 17 3 57 8 90 11 33 2 74 7 90 9 17 2 51 6 76 9 119 15 380 77
554 133 77 25 145 48 150 52 6 4 33 16 60 26 79 28 292 133 387 190 48 29 171
113 274 187 102 73 196 140 208 148 105 70 354 280 511 430 61 58 128 122 150
142 l40 37 0 -232 c0 -200 3 -240 19 -287 47 -138 45 -160 45 523 l1 637 -195
0 -195 0 0 241 0 241 468 -7 c257 -4 564 -4 682 0 l215 7 3 152 c2 83 6 174 9
201 8 66 7 335 -1 665 -6 244 -5 261 9 215 30 -103 72 -303 80 -380 2 -22 9
-87 15 -145 7 -58 13 -226 13 -375 0 -251 -2 -281 -27 -420 -26 -148 -32 -184
-62 -418 -18 -144 -20 -147 -53 -147 -47 0 -191 90 -191 120 0 5 16 16 35 24
19 8 35 17 35 20 0 4 -56 6 -125 6 l-125 0 0 -660 0 -660 -260 0 -260 0 -11
-27 c-11 -30 -87 -139 -133 -193 -126 -145 -360 -348 -549 -476 -238 -160
-580 -318 -842 -389 -30 -8 -81 -22 -112 -30 -74 -20 -80 -14 -65 68 17 91 16
166 -3 173 -8 3 -56 -14 -107 -39 -102 -50 -210 -88 -333 -116 -71 -17 -111
-24 -255 -47 -120 -18 -232 -25 -435 -26 -385 -3 -690 28 -990 98 -140 33
-191 47 -355 94 -113 32 -344 116 -398 144 -17 9 -42 16 -56 16 -13 0 -26 4
-28 9 -1 5 -79 48 -173 96 -93 47 -192 101 -220 119 -167 108 -208 136 -280
189 -166 122 -362 305 -505 472 -87 101 -190 237 -190 249 0 4 -20 32 -45 63
-25 30 -45 59 -45 63 0 5 -20 43 -45 84 -25 42 -45 79 -45 83 0 3 -16 39 -36
80 -53 111 -66 85 -34 -67 7 -30 14 -68 15 -85 2 -16 9 -48 15 -70 6 -22 15
-56 20 -75 21 -94 55 -205 62 -208 4 -2 8 -16 8 -32 0 -16 7 -35 15 -44 8 -8
15 -22 15 -31 0 -21 41 -149 50 -155 4 -3 10 -20 13 -39 4 -19 26 -73 48 -120
128 -268 141 -291 160 -291 16 0 18 -5 13 -24 -4 -18 2 -35 20 -59 14 -19 26
-38 26 -43 0 -5 20 -36 45 -69 25 -33 45 -65 45 -72 0 -6 3 -13 8 -15 4 -1 24
-28 44 -59 20 -30 58 -78 85 -107 27 -29 48 -52 46 -52 -1 0 8 -15 20 -33 32
-47 215 -227 232 -227 7 0 15 -10 19 -23 3 -13 24 -39 47 -58 23 -19 56 -49
74 -67 20 -21 40 -32 52 -30 12 2 27 -9 45 -32 26 -36 273 -211 315 -224 12
-4 27 -13 33 -21 7 -8 20 -15 29 -15 10 0 28 -11 40 -24 12 -13 36 -27 53 -30
17 -3 37 -15 45 -26 8 -11 22 -20 31 -20 9 0 35 -11 57 -25 22 -13 52 -25 66
-25 15 0 29 -6 32 -14 3 -7 21 -16 40 -20 19 -4 47 -16 62 -27 14 -12 41 -25
58 -30 48 -12 197 -64 237 -82 19 -8 69 -23 110 -32 41 -10 101 -26 133 -37
58 -18 143 -35 321 -63 50 -7 114 -18 141 -24 78 -15 206 -31 255 -31 25 0 65
-5 90 -12 27 -6 165 -11 340 -12 l295 -2 15 -26 c13 -25 13 -29 -8 -55 -12
-15 -28 -39 -35 -53 -13 -27 -51 -66 -70 -73 -7 -2 -8 -8 -4 -13 4 -4 31 -3
60 3 36 7 70 8 103 2 52 -10 94 -5 94 12 0 6 8 6 21 -2 24 -13 374 6 417 22
13 5 40 9 61 9 68 0 379 63 536 109 248 72 446 145 655 244 66 31 273 144 321
175 15 9 48 30 75 47 276 167 667 522 904 821 187 235 325 455 460 734 45 91
85 173 90 182 5 9 25 57 44 105 81 206 97 255 156 482 14 58 32 107 39 109 7
2 21 -4 32 -14 30 -27 103 -132 133 -191 14 -29 30 -53 34 -53 23 0 159 394
187 540 4 19 18 74 31 121 38 133 73 328 90 504 18 189 22 748 5 895 -29 259
-37 314 -83 530 -11 53 -50 212 -69 278 -5 17 -13 47 -18 65 -20 76 -126 369
-156 432 -8 17 -30 66 -49 111 -32 75 -135 280 -185 369 -197 346 -433 656
-716 940 -326 329 -699 605 -1090 809 -38 20 -99 62 -135 92 -190 163 -356
272 -620 408 l-195 101 -46 122 c-53 140 -136 318 -156 335 -8 6 -28 39 -44
72 -35 69 -160 263 -228 351 -54 71 -164 199 -235 273 -46 48 -53 52 -97 52
-29 0 -49 -5 -52 -12 -3 -10 -8 -10 -21 1 -25 21 -32 4 -8 -21 11 -13 41 -45
66 -72 26 -27 46 -53 46 -58 0 -5 31 -53 69 -106 38 -53 79 -115 91 -137 12
-22 30 -53 41 -70 32 -50 132 -258 141 -295 19 -70 21 -93 9 -86 -6 4 -11 14
-11 22 0 28 -129 274 -209 400 -82 128 -203 290 -286 382 l-47 52 -184 0 -184
0 0 -22 c0 -13 14 -108 30 -213 58 -366 71 -441 89 -525 35 -170 36 -180 12
-165 -6 3 -11 19 -11 34 0 16 -7 34 -15 41 -8 7 -15 20 -15 28 0 9 -6 40 -12
69 -9 37 -17 53 -29 53 -9 0 -63 42 -120 93 -342 304 -662 467 -991 503 -115
13 -114 -18 7 -235 46 -83 87 -162 91 -174 4 -12 15 -34 25 -49 11 -14 22 -40
25 -57 4 -17 10 -31 15 -31 4 0 14 -21 22 -47 7 -27 19 -47 25 -46 7 2 12 -5
12 -15 0 -10 3 -22 8 -26 4 -4 7 -11 7 -14 0 -4 9 -20 19 -35 11 -16 19 -45
19 -70 -1 -23 3 -46 7 -52 4 -5 10 -23 13 -40 5 -31 24 -88 38 -117 5 -10 9
-24 9 -32 0 -7 7 -29 15 -48 l14 -35 43 11 c24 7 77 29 118 51 126 65 186 93
308 140 64 26 128 51 142 57 42 17 144 48 160 48 14 0 50 -87 50 -122 0 -12
-33 -24 -137 -48 -76 -18 -142 -37 -148 -41 -5 -5 -17 -9 -27 -9 -42 0 -354
-115 -458 -169 -301 -156 -481 -327 -594 -564 -75 -156 -114 -385 -115 -670
-1 -92 -4 -114 -23 -146 -21 -37 -22 -37 -50 -23 -25 12 -32 12 -53 -2 -13 -9
-30 -13 -38 -10 -9 3 -30 -11 -52 -33 -35 -36 -37 -37 -31 -12 5 24 3 26 -22
23 -15 -2 -52 -13 -82 -24 -64 -25 -87 -31 -116 -34 -11 -1 -25 -5 -31 -9 -7
-4 -27 -1 -45 7 -18 8 -48 20 -65 26 -18 7 -33 17 -33 22 0 6 -7 8 -15 5 -8
-4 -17 -2 -20 3 -7 12 -64 28 -140 41 -64 11 -97 14 -265 24 -58 4 -123 8
-145 10 -22 1 -80 4 -128 6 -49 1 -90 6 -92 9 -2 4 -28 8 -57 9 -58 3 -144 9
-198 15 -19 2 -70 5 -113 5 -49 1 -76 5 -72 11 4 6 -23 11 -72 12 -106 2 -122
3 -163 13 -19 5 -39 9 -44 9 -5 1 -11 8 -13 16 -4 12 -3 12 5 1 7 -9 12 -10
16 -2 4 6 12 8 18 5 7 -4 8 -2 4 4 -4 6 -37 12 -74 12 -98 2 -111 3 -106 12 8
13 -11 9 -25 -4 -10 -11 -11 -10 -6 5 4 9 12 17 17 17 6 0 5 7 -2 15 -11 13
-10 14 4 9 9 -3 16 -10 16 -15 0 -5 7 -9 16 -9 14 0 14 2 3 16 -11 14 -9 19
11 36 15 12 18 18 8 15 -13 -5 -11 2 8 31 30 44 39 53 31 30 -9 -25 7 -22 38
6 22 20 25 28 16 44 -8 16 -7 23 7 33 16 13 16 13 2 -5 -14 -18 -13 -19 2 -13
11 4 18 0 20 -9 3 -13 5 -13 23 1 16 12 17 14 2 9 -13 -5 -16 -2 -11 10 3 9 1
16 -4 16 -6 0 -10 9 -9 19 0 11 5 17 10 14 5 -3 13 1 18 8 6 9 9 10 9 2 0 -7
-7 -16 -16 -21 -15 -8 -15 -10 0 -15 9 -4 15 -3 14 1 -1 4 2 15 7 25 5 12 1
25 -11 39 -19 21 -19 21 3 9 20 -10 23 -9 29 14 3 14 10 25 16 25 5 0 6 6 2
13 -5 8 -2 8 9 -2 18 -14 23 -26 8 -17 -5 3 -11 -1 -15 -9 -7 -20 0 -19 34 5
15 11 31 16 35 12 5 -4 5 -1 1 6 -4 7 -11 10 -16 7 -4 -3 -10 -2 -13 2 -2 5
-2 2 -1 -4 5 -20 -4 -15 -17 8 -8 15 -8 19 0 15 6 -4 11 -2 11 5 0 10 3 10 12
1 7 -7 17 -12 23 -12 5 0 3 5 -5 10 -13 9 -13 10 0 10 13 0 13 1 0 10 -12 8
-12 10 -1 10 8 0 19 -7 25 -16 10 -13 12 -13 12 5 0 11 -4 18 -7 15 -4 -2 -10
0 -14 6 -3 5 -1 10 4 10 6 0 11 7 11 15 0 9 6 15 13 14 6 -1 19 -1 27 0 13 1
13 3 1 10 -12 7 -12 13 -3 24 7 7 8 18 4 23 -4 4 2 2 12 -6 13 -10 17 -10 12
-2 -4 6 -3 12 3 12 6 0 8 7 5 15 -4 9 0 15 9 15 8 0 18 -6 20 -12 4 -8 6 -7 6
3 1 20 -23 42 -34 31 -5 -4 -5 -1 -1 6 4 7 12 10 17 7 5 -4 9 1 9 9 0 9 4 16
10 16 5 0 7 -6 4 -14 -3 -8 0 -17 5 -21 6 -3 8 -11 5 -17 -4 -7 -2 -8 5 -4 6
4 9 11 6 16 -3 4 -2 10 2 13 5 2 1 2 -7 0 -11 -2 -10 1 3 11 11 8 15 20 11 30
-5 12 0 19 16 23 16 4 18 8 9 14 -10 6 -7 11 11 18 14 5 18 10 10 10 -8 1 1 9
20 19 35 17 43 34 18 40 -10 3 -10 1 -1 -5 9 -6 7 -12 -7 -21 -12 -7 -20 -8
-20 -2 0 5 5 10 11 10 5 0 7 5 4 10 -3 6 0 13 8 16 8 3 13 13 10 23 -3 12 4
24 17 34 15 11 18 16 8 20 -7 3 4 4 25 2 33 -3 37 0 37 21 0 14 5 23 13 22 7
-2 12 7 11 25 -1 25 13 34 49 28 4 0 7 6 7 14 0 8 6 15 14 15 8 0 17 7 20 16
4 10 2 13 -6 8 -8 -5 -9 -2 -4 11 4 11 1 22 -6 27 -8 5 -2 7 16 4 22 -4 26 -2
18 6 -7 7 -12 15 -12 19 0 12 38 17 48 7 6 -6 12 -5 17 3 5 7 4 10 -2 6 -6 -4
-13 -1 -15 6 -4 10 -4 24 1 81 1 6 8 1 16 -10 8 -11 15 -14 15 -6 0 6 9 12 20
12 13 0 18 5 14 15 -5 11 -10 13 -19 5 -10 -8 -15 -8 -21 1 -4 8 -3 9 5 5 6
-4 14 0 17 8 3 9 10 16 16 16 5 0 7 -4 4 -8 -2 -4 4 -13 15 -20 11 -7 19 -8
19 -2 0 5 -4 10 -9 10 -5 0 -11 9 -14 19 -4 17 0 19 28 16 26 -2 32 1 28 11
-3 8 -11 13 -18 12 -8 -2 -14 2 -14 7 -1 6 10 10 23 9 15 -1 23 4 23 15 0 38
3 41 30 37 20 -4 23 -2 15 6 -7 7 -12 18 -12 26 0 11 3 12 14 3 11 -10 14 -9
12 3 -1 9 -6 19 -11 23 -4 4 -5 2 -1 -4 5 -9 2 -11 -9 -6 -13 4 -14 8 -4 14 7
4 17 5 22 2 4 -3 11 5 14 16 3 12 10 20 16 18 15 -5 21 -28 7 -25 -7 2 -14 -8
-16 -22 -3 -19 -2 -21 6 -10 5 8 15 15 22 15 13 1 13 4 6 35 -2 9 4 14 15 14
9 -1 17 3 17 8 0 6 -8 8 -18 6 -11 -3 -23 2 -30 13 -10 15 -9 17 4 12 9 -3 14
-1 12 7 -2 7 13 21 32 32 19 11 36 24 38 28 2 5 11 6 20 3 13 -4 12 -2 -3 10
-11 8 -16 19 -12 23 4 5 12 2 17 -6 7 -11 9 -5 6 20 -3 29 -2 32 9 17 7 -9 16
-17 20 -17 4 0 2 7 -5 15 -6 8 -9 19 -5 25 9 15 28 13 19 -2 -4 -8 -3 -9 2 -5
13 12 14 68 1 60 -6 -3 -7 -1 -3 6 4 6 11 9 16 6 4 -3 20 9 34 26 15 18 31 27
38 23 8 -5 9 -2 5 9 -4 10 -1 17 6 17 8 0 8 3 -2 9 -11 7 -11 9 0 14 12 4 11
7 -1 16 -8 6 -12 11 -7 12 25 5 33 3 45 -11 8 -8 11 -10 8 -4 -3 7 1 14 8 17
8 3 17 1 20 -6 3 -9 5 -9 5 0 1 6 -9 19 -21 28 l-23 17 29 -5 30 -5 -24 18
c-14 10 -21 22 -17 26 4 4 15 0 25 -9 21 -20 32 -22 32 -6 0 5 -4 7 -10 4 -6
-3 -10 -1 -10 4 0 6 7 11 16 11 14 0 14 3 4 15 -7 9 -10 19 -6 23 8 7 13 8 41
11 8 0 15 6 15 12 0 5 -5 7 -12 3 -7 -4 -8 -3 -4 4 4 7 14 12 22 12 8 0 14 7
14 15 0 8 5 15 12 15 6 0 3 7 -8 16 -10 8 -13 13 -6 9 10 -5 17 12 13 37 0 3
13 3 30 -2 25 -7 29 -7 20 4 -6 7 -8 16 -4 19 3 4 1 13 -6 21 -9 11 -8 15 3
19 11 4 13 1 9 -10 -5 -12 -3 -14 7 -8 10 6 12 4 7 -7 -6 -17 23 -20 35 -3 9
13 -12 36 -26 28 -7 -4 -6 -1 1 9 7 8 9 18 5 22 -4 4 0 6 8 4 9 -2 14 3 12 11
-3 12 0 12 12 2 18 -15 40 -5 32 15 -4 9 2 14 17 15 l22 0 -22 9 c-13 5 -23
14 -23 20 0 13 17 13 22 1 2 -5 12 -3 22 5 11 8 14 14 7 14 -7 0 -9 5 -6 10 5
7 11 8 19 1 9 -7 12 -3 11 19 0 15 -3 26 -7 24 -4 -2 -9 -1 -12 4 -3 5 1 9 9
10 8 1 22 3 30 4 22 2 7 18 -18 19 -21 0 -21 1 -2 8 11 5 23 7 28 4 4 -2 7 4
7 14 0 15 2 16 10 3 8 -12 10 -11 10 7 0 13 12 32 30 45 17 12 30 28 30 35 0
7 6 12 13 10 6 -1 11 4 9 12 -2 9 5 12 23 9 14 -3 25 -1 25 3 0 5 -4 9 -10 9
-5 0 -10 4 -10 10 0 5 8 7 18 4 14 -5 15 -4 2 5 -11 8 -565 11 -1892 11
l-1878 0 0 -2503z m3740 2483 c0 -5 -6 -9 -12 -7 -7 1 -12 -6 -11 -17 1 -13
-2 -15 -10 -7 -7 7 -6 15 3 26 14 17 30 20 30 5z m-50 -55 c0 -8 -4 -15 -10
-15 -5 0 -7 7 -4 15 4 8 8 15 10 15 2 0 4 -7 4 -15z m2464 -54 c-5 -6 -33 31
-33 44 -1 6 8 -1 19 -15 10 -14 17 -27 14 -29z m-14 -47 c0 -8 -4 -12 -10 -9
-5 3 -10 10 -10 16 0 5 5 9 10 9 6 0 10 -7 10 -16z m-2595 -104 c3 -5 1 -10
-4 -10 -6 0 -11 5 -11 10 0 6 2 10 4 10 3 0 8 -4 11 -10z m-35 -74 c0 -6 -7
-2 -15 8 -8 11 -15 25 -15 30 0 6 7 2 15 -8 8 -11 15 -25 15 -30z m-165 -185
c-3 -6 -11 -11 -16 -11 -5 0 -4 6 3 14 14 16 24 13 13 -3z m3128 -356 c4 -8 2
-17 -3 -20 -6 -4 -10 3 -10 14 0 25 6 27 13 6z m-1643 -233 c0 -7 -4 -10 -10
-7 -5 3 -10 16 -10 28 0 18 2 19 10 7 5 -8 10 -21 10 -28z m15 -50 c-8 -8 -25
10 -19 20 4 6 9 5 15 -3 4 -7 6 -15 4 -17z m-2021 -10 c3 -5 -1 -9 -9 -9 -8 0
-12 4 -9 9 3 4 7 8 9 8 2 0 6 -4 9 -8z m39 -6 c4 -10 1 -13 -8 -9 -8 3 -12 9
-9 14 7 12 11 11 17 -5z m-202 -249 c-10 -9 -11 -8 -5 6 3 10 9 15 12 12 3 -3
0 -11 -7 -18z m-43 -101 c-2 -1 -12 -8 -22 -16 -18 -14 -19 -14 -8 6 6 12 8
25 4 30 -4 5 1 2 11 -5 9 -8 16 -14 15 -15z m-78 -87 c0 -6 -4 -7 -10 -4 -5 3
-10 11 -10 16 0 6 5 7 10 4 6 -3 10 -11 10 -16z m4262 -623 c339 -51 634 -211
850 -460 101 -117 200 -273 236 -371 6 -16 20 -55 31 -85 l20 -55 1 173 0 172
485 0 485 0 0 -670 0 -670 -155 0 -155 0 0 -76 c0 -64 -2 -75 -15 -70 -8 3
-15 2 -15 -2 0 -5 -7 -17 -16 -28 -14 -18 -15 -18 -4 4 7 15 7 22 0 22 -5 0
-10 -5 -10 -11 0 -5 -4 -8 -9 -5 -5 4 -11 0 -14 -6 -3 -10 -7 -10 -20 1 -9 7
-14 18 -11 25 3 6 -1 3 -9 -7 -9 -11 -24 -16 -39 -13 -17 3 -25 -1 -25 -10 0
-9 4 -10 12 -4 6 5 16 5 25 0 12 -8 10 -10 -7 -10 -12 0 -25 -5 -29 -12 -5 -8
-11 -6 -20 7 -8 10 -20 15 -29 11 -9 -3 -13 -2 -10 3 3 5 1 12 -5 16 -5 3 -10
0 -10 -7 0 -8 -9 -14 -20 -15 -11 -1 -20 2 -20 8 0 5 -5 9 -11 9 -8 0 -8 -4
-1 -13 8 -9 4 -15 -16 -25 -19 -9 -23 -9 -14 0 16 16 15 25 -3 25 -8 0 -15 -5
-15 -10 0 -5 -11 -7 -25 -5 -17 4 -25 1 -25 -8 0 -20 -27 -17 -40 4 -8 11 -10
12 -7 2 8 -25 -18 -41 -39 -25 -18 13 -17 14 6 9 14 -2 18 -1 10 2 -8 4 -21
12 -29 18 -11 8 -13 8 -8 0 4 -7 1 -17 -7 -23 -11 -9 -15 -9 -20 1 -5 10 -7
10 -12 1 -3 -7 -10 -13 -15 -13 -6 0 -7 5 -4 10 3 6 2 10 -3 10 -6 0 -12 -7
-16 -15 -6 -17 -26 -20 -26 -4 0 5 5 7 10 4 6 -3 10 -1 10 4 0 15 -41 9 -61
-8 -10 -8 -15 -19 -13 -26 3 -6 -2 -12 -10 -12 -12 0 -13 5 -5 20 8 13 8 22 0
30 -7 7 -13 3 -20 -14 -5 -13 -10 -19 -10 -13 -1 7 -12 11 -26 10 -18 -1 -25
-7 -26 -21 0 -11 -3 -14 -6 -7 -7 17 -23 15 -23 -3 0 -8 -4 -15 -9 -15 -5 0
-8 7 -7 16 0 9 -5 19 -13 22 -8 2 -11 1 -8 -4 3 -5 -6 -14 -19 -21 -20 -9 -24
-9 -25 5 0 12 -2 13 -6 3 -5 -11 -7 -11 -14 0 -7 12 -10 12 -21 0 -7 -8 -8
-11 -2 -8 6 3 11 -1 11 -9 0 -9 -4 -11 -9 -6 -6 6 -21 5 -39 -1 -24 -10 -31
-8 -45 8 -8 11 -14 16 -11 10 2 -5 -4 -18 -15 -27 -10 -10 -18 -13 -18 -8 0
13 -32 9 -42 -5 -4 -5 -8 1 -9 15 0 14 -3 19 -6 12 -2 -6 -9 -10 -14 -6 -5 3
-9 -2 -9 -11 0 -9 -4 -13 -10 -10 -5 3 -10 1 -10 -5 0 -6 -7 -4 -17 5 -15 16
-17 16 -25 0 -7 -12 -17 -15 -39 -10 -18 4 -29 3 -29 -4 0 -6 -5 -11 -10 -11
-7 0 -7 7 1 21 11 21 10 21 -22 -2 -40 -28 -65 -34 -75 -18 -4 7 -3 9 4 5 6
-3 14 -1 18 5 5 9 -1 10 -22 3 -16 -4 -48 -8 -71 -8 -33 1 -40 -2 -32 -12 7
-8 7 -14 -1 -19 -5 -3 -10 -2 -10 3 0 5 -13 8 -30 7 -18 -1 -27 2 -24 9 3 6
-1 3 -9 -6 -14 -18 -43 -26 -33 -10 3 5 -1 9 -9 9 -8 0 -12 -4 -10 -8 3 -4 -2
-9 -10 -13 -8 -3 -15 -1 -15 3 0 5 -7 12 -16 15 -8 3 -12 2 -9 -3 6 -11 -26
-24 -73 -29 -7 -1 -11 -6 -8 -11 10 -15 -55 -6 -66 10 -6 10 -11 10 -14 3 -3
-7 -14 -9 -26 -6 -16 4 -19 2 -14 -9 4 -8 1 -6 -7 4 -17 21 -28 22 -21 3 3 -8
0 -17 -7 -22 -7 -4 -10 -3 -5 4 3 6 2 13 -4 17 -5 3 -10 1 -10 -5 0 -6 -5 -8
-12 -4 -8 5 -7 0 2 -11 14 -17 13 -18 -3 -12 -10 4 -22 7 -27 7 -5 0 -10 17
-12 38 l-3 37 -32 -55 c-63 -110 -64 -124 -59 -577 2 -224 7 -428 11 -453 5
-38 3 -50 -15 -73 -29 -37 -71 -37 -100 0 -18 24 -21 36 -15 78 4 27 9 228 11
445 4 310 2 429 -11 551 -8 86 -15 207 -15 269 0 105 15 276 28 310 3 8 4 21
3 28 -3 16 16 15 73 -4 38 -13 53 -26 81 -70 19 -30 37 -54 40 -54 3 0 5 22 5
49 0 44 -3 50 -27 59 -16 6 -71 27 -123 47 -110 41 -122 47 -128 63 -2 8 12
12 43 12 38 0 46 3 41 15 -3 8 -1 15 4 15 5 0 12 9 15 20 3 11 11 20 17 20 5
0 8 -6 6 -12 -6 -16 11 -33 39 -42 12 -4 24 -18 27 -31 4 -14 12 -25 20 -25 7
0 22 -11 32 -25 10 -14 22 -25 26 -25 11 0 10 1068 -1 1074 -22 14 -110 -141
-112 -198 0 -12 -3 -16 -5 -9 -3 7 -12 9 -20 6 -22 -8 -19 -95 5 -110 21 -13
31 -55 32 -142 1 -33 5 -61 10 -61 5 0 9 -9 9 -21 0 -11 -4 -18 -9 -15 -5 3
-11 -24 -13 -60 -3 -55 -8 -70 -27 -85 -33 -27 -39 -24 -51 23 -12 42 -10 81
10 223 14 96 6 249 -15 312 -14 40 -96 176 -102 169 -2 -1 -3 -400 -3 -887 0
-486 -4 -878 -9 -871 -11 18 -78 18 -98 -1 -13 -11 -23 -13 -36 -6 -11 7 -17
7 -17 -1 0 -5 -5 -10 -11 -10 -5 0 -7 5 -4 10 3 6 -1 10 -10 10 -9 0 -13 -4
-10 -10 3 -5 -1 -10 -9 -10 -9 0 -16 -4 -16 -8 0 -5 -7 -9 -15 -9 -12 0 -12 3
-2 16 9 12 9 13 0 7 -7 -4 -13 -2 -13 3 0 6 -4 11 -9 11 -5 0 -7 -8 -4 -19 3
-14 -2 -20 -21 -23 -15 -3 -29 -1 -32 3 -3 5 5 9 17 9 28 0 23 5 -13 14 -23 5
-26 3 -21 -11 4 -11 3 -14 -5 -9 -7 4 -12 2 -12 -6 0 -10 -2 -11 -8 0 -5 7
-16 10 -25 6 -9 -3 -15 -10 -12 -14 3 -5 1 -11 -4 -15 -6 -3 -8 6 -5 22 l5 28
-25 -30 c-14 -16 -28 -26 -32 -22 -4 4 -3 7 3 7 6 0 9 9 6 20 -6 22 -18 26
-28 10 -3 -5 -1 -10 5 -10 6 0 8 -5 5 -11 -5 -7 -14 -4 -28 8 -11 10 -17 12
-13 6 4 -7 2 -13 -4 -13 -6 0 -9 -3 -7 -7 3 -5 -7 -9 -21 -10 -24 -1 -25 0 -9
12 12 8 14 15 8 20 -6 3 -11 1 -11 -5 0 -7 -7 -10 -15 -6 -9 3 -15 0 -15 -9 0
-7 -4 -17 -10 -20 -6 -4 -7 1 -3 12 6 16 5 16 -10 4 -11 -9 -17 -10 -17 -2 0
6 -5 11 -11 11 -5 0 -7 -6 -3 -12 5 -8 1 -8 -12 2 -10 8 -16 10 -12 6 4 -5 -4
-15 -18 -23 -34 -17 -39 -17 -24 2 10 12 10 15 -4 15 -9 0 -16 -4 -16 -9 0 -5
-10 -11 -22 -13 -14 -2 -22 -9 -20 -18 3 -12 1 -12 -9 -3 -9 9 -9 16 -1 25 9
11 6 14 -11 15 -14 2 -17 -1 -9 -6 11 -6 11 -10 0 -19 -16 -13 -28 -13 -51 0
-17 8 -18 7 -12 -14 4 -16 3 -19 -3 -9 -5 7 -14 11 -20 7 -6 -3 -13 -2 -17 4
-4 7 -12 7 -24 0 -10 -5 -21 -6 -25 -3 -3 3 -6 88 -6 188 0 100 -3 344 -7 543
l-6 362 -324 0 -323 0 0 -578 c0 -436 -3 -581 -12 -590 -9 -9 -9 -12 0 -12 7
0 12 -4 12 -8 0 -5 -7 -9 -15 -9 -8 0 -15 4 -15 9 0 5 -5 6 -10 3 -6 -4 -7
-12 -4 -18 5 -8 3 -8 -7 1 -15 14 -33 16 -25 3 3 -5 0 -11 -7 -14 -8 -3 -19 4
-25 14 -7 10 -20 19 -30 18 -15 0 -14 -1 2 -8 19 -7 19 -8 0 -15 -11 -4 -20
-3 -22 4 -3 8 -8 8 -17 0 -10 -8 -15 -8 -21 1 -5 8 -3 9 6 4 8 -5 11 -4 6 3
-4 6 -14 8 -22 5 -11 -4 -12 -9 -5 -16 16 -16 13 -23 -9 -23 -13 0 -19 5 -16
13 3 7 1 13 -4 13 -6 0 -10 -4 -10 -10 0 -5 -9 -10 -20 -10 -14 0 -18 -5 -14
-17 5 -14 4 -15 -4 -4 -6 8 -8 19 -6 26 3 6 -6 11 -20 11 -16 0 -22 -4 -19
-14 5 -10 -2 -13 -28 -11 -19 2 -33 -1 -32 -6 1 -10 -38 -10 -104 -2 -18 3
-30 1 -28 -4 3 -4 -4 -13 -16 -19 -13 -7 -19 -8 -15 -2 3 6 2 13 -4 17 -5 3
-10 -1 -10 -10 0 -14 -2 -14 -24 0 -19 13 -25 13 -35 2 -6 -8 -7 -18 -3 -22 4
-5 1 -5 -6 -1 -7 4 -10 12 -7 17 10 15 -7 10 -28 -8 -11 -10 -17 -12 -13 -5 4
7 2 12 -5 12 -7 0 -9 -9 -6 -22 6 -22 6 -22 -8 -4 -11 14 -15 16 -15 5 -1 -11
-4 -10 -14 3 -15 21 -27 14 -19 -10 5 -14 3 -14 -15 2 -12 10 -19 23 -16 27 3
5 3 9 -1 9 -13 0 -22 -45 -11 -53 7 -6 6 -7 -4 -4 -8 2 -14 11 -14 20 1 9 -2
14 -7 11 -5 -3 -8 -13 -7 -21 2 -9 -3 -18 -11 -21 -10 -3 -12 0 -7 13 5 13 2
16 -10 11 -14 -5 -15 -4 -4 9 19 23 3 18 -20 -7 -11 -12 -20 -18 -20 -14 0 5
-7 3 -15 -4 -8 -6 -19 -9 -25 -5 -6 4 -10 109 -10 309 l0 303 -124 -1 -124 -1
-6 -50 c-3 -27 -6 -112 -6 -187 l0 -138 -635 0 -635 0 0 -211 c0 -184 -2 -210
-15 -205 -8 3 -15 1 -15 -3 0 -11 -19 -9 -38 3 -8 5 -12 3 -10 -6 2 -7 -4 -13
-12 -13 -8 0 -14 5 -13 12 2 8 -6 9 -27 3 -15 -4 -31 -6 -34 -2 -3 3 -6 1 -6
-4 0 -12 -63 -14 -71 -3 -3 5 -14 2 -25 -7 -10 -8 -14 -13 -8 -10 6 3 11 -1
11 -9 0 -19 -2 -19 -23 3 -17 16 -17 16 -12 -5 3 -13 2 -23 -3 -23 -5 0 -9 8
-9 18 0 14 -2 14 -9 3 -5 -8 -21 -15 -34 -15 -14 -1 -23 2 -21 6 3 4 -1 8 -8
9 -7 0 -25 2 -40 3 -14 1 -24 -2 -21 -7 3 -5 13 -7 23 -4 11 3 21 0 23 -7 3
-7 -7 -11 -27 -10 -17 1 -38 -3 -46 -9 -12 -9 -13 -9 -3 3 17 19 16 27 -3 34
-12 4 -15 2 -11 -9 4 -8 1 -17 -5 -21 -7 -5 -8 -2 -3 6 5 8 3 11 -6 8 -8 -3
-13 -12 -11 -19 3 -11 1 -11 -9 -2 -10 10 -15 9 -26 -5 -11 -14 -12 -15 -7 -1
4 12 -2 18 -21 21 -24 5 -25 4 -10 -12 14 -15 13 -17 -13 -15 -16 1 -34 5 -40
9 -8 4 -12 0 -12 -11 0 -10 -4 -14 -8 -8 -11 15 -32 17 -32 2 0 -8 -3 -7 -10
3 -8 12 -12 11 -30 -8 -16 -16 -25 -20 -38 -13 -11 6 -20 4 -29 -7 -10 -15
-11 -14 -6 6 3 13 1 22 -6 22 -7 0 -9 -4 -6 -10 3 -5 -3 -10 -14 -10 -10 0
-21 3 -24 8 -2 4 -2 2 -1 -5 5 -20 -13 -25 -20 -6 -4 10 -10 13 -14 8 -4 -6
-16 -17 -26 -25 -16 -12 -18 -12 -11 -1 6 11 3 13 -13 9 l-22 -6 0 1214 0
1214 1120 0 1120 0 0 -156 0 -157 52 49 c116 108 198 206 198 235 l0 29 1265
2 1264 3 -32 22 c-66 45 -218 68 -506 77 -73 2 -137 8 -141 13 -8 8 -28 83
-37 141 -7 41 2 51 87 102 151 89 378 191 470 211 19 4 73 16 120 27 181 43
358 52 522 28z m-327 -1416 c3 -5 -1 -10 -9 -10 -9 0 -16 5 -16 10 0 6 4 10 9
10 6 0 13 -4 16 -10z m-5510 -39 c3 -5 0 -13 -6 -17 -7 -4 -9 -3 -5 4 3 5 0
13 -6 15 -9 4 -10 6 -1 6 6 1 14 -3 18 -8z m4189 -66 c11 -8 27 -15 35 -15 9
0 34 -17 57 -37 32 -30 46 -54 62 -107 16 -51 19 -72 10 -77 -8 -5 -10 -97 -5
-364 7 -395 4 -432 -47 -498 -49 -65 -106 -92 -191 -92 -102 1 -165 39 -213
130 l-27 50 3 308 c3 267 2 306 -11 301 -12 -4 -14 11 -11 103 2 59 8 117 13
128 5 11 14 34 21 52 18 47 76 95 131 107 13 3 40 10 59 15 52 14 93 12 114
-4z m-4273 -34 c-6 -10 -7 -21 -3 -25 3 -4 -1 -4 -10 -1 -15 6 -15 8 0 26 21
24 26 24 13 0z m139 -171 c0 -5 -5 -10 -11 -10 -5 0 -7 5 -4 10 3 6 8 10 11
10 2 0 4 -4 4 -10z m-303 -52 c-3 -8 -6 -5 -6 6 -1 11 2 17 5 13 3 -3 4 -12 1
-19z m-39 -63 c-3 -3 -9 2 -12 12 -6 14 -5 15 5 6 7 -7 10 -15 7 -18z m-67
-98 c-10 -9 -11 -8 -5 6 3 10 9 15 12 12 3 -3 0 -11 -7 -18z m7979 -197 c0 -5
-2 -10 -4 -10 -3 0 -8 5 -11 10 -3 6 -1 10 4 10 6 0 11 -4 11 -10z m-8175 -29
c3 -5 2 -12 -3 -15 -5 -3 -9 1 -9 9 0 17 3 19 12 6z m-91 -143 c-3 -4 -9 -8
-15 -8 -5 0 -9 4 -9 8 0 5 7 9 15 9 8 0 12 -4 9 -9z m6896 3 c0 -6 -4 -12 -8
-15 -5 -3 -9 1 -9 9 0 8 4 15 9 15 4 0 8 -4 8 -9z m-926 -110 c3 -5 -1 -11 -9
-14 -9 -4 -12 -1 -8 9 6 16 10 17 17 5z m-6083 -54 c-10 -9 -11 -8 -5 6 3 10
9 15 12 12 3 -3 0 -11 -7 -18z m-52 -50 c18 7 16 4 -14 -17 -11 -8 -17 -10
-13 -6 4 5 2 16 -4 25 -10 13 -10 14 1 4 7 -6 21 -9 30 -6z m3489 -103 c26
-50 40 -252 45 -665 l2 -176 -35 -32 c-69 -64 -75 -65 -305 -68 -131 -2 -244
-9 -300 -19 -198 -34 -209 -35 -230 -25 -11 5 -31 12 -45 14 -147 29 -232 51
-281 73 -49 22 -62 34 -79 70 -19 39 -21 55 -16 156 3 62 8 200 11 307 8 241
20 275 119 316 41 17 76 20 496 35 187 6 294 15 335 25 33 9 65 17 70 18 6 1
16 6 23 10 6 5 40 11 74 15 67 7 89 -3 116 -54z m487 -74 c3 -5 1 -10 -4 -10
-6 0 -11 5 -11 10 0 6 2 10 4 10 3 0 8 -4 11 -10z m3685 -210 c34 -34 40 -65
40 -213 0 -78 5 -178 11 -223 10 -70 9 -84 -5 -112 -21 -41 -54 -62 -100 -64
-28 -1 -41 5 -62 28 -24 27 -25 33 -19 104 4 41 10 156 14 255 6 182 13 214
49 234 27 16 50 13 72 -9z m-3512 -1309 l2 -511 -80 0 -80 0 0 -45 0 -45 80 0
80 0 0 -340 0 -340 -295 0 -295 0 0 325 0 325 -100 0 -100 0 0 -325 0 -325
-291 2 -291 3 -4 889 c-2 489 -1 893 2 898 4 6 256 8 688 5 l681 -5 3 -511z
m1549 -385 l2 -896 -295 0 -294 0 0 240 0 240 -100 0 -100 0 0 -240 0 -240
-292 0 -293 0 1 893 c0 490 1 894 2 897 1 3 309 4 685 4 l682 -1 2 -897z
m1543 662 l0 -238 -380 0 -380 0 0 -90 0 -90 383 -2 382 -3 -2 -195 c-2 -107
1 -213 5 -235 l9 -40 31 65 c41 85 49 159 28 275 -23 132 -21 180 9 210 57 58
227 22 289 -60 36 -47 56 -107 56 -170 0 -46 -5 -60 -36 -102 -201 -265 -640
-674 -944 -877 -132 -88 -359 -216 -503 -283 -302 -139 -697 -251 -1017 -287
-161 -18 -461 -27 -564 -17 -268 27 -762 123 -861 167 -16 7 -88 33 -160 57
-162 55 -320 118 -405 162 -36 18 -86 44 -113 57 -26 12 -47 26 -47 30 0 5 28
8 63 8 83 0 196 27 307 73 54 22 111 19 185 -9 171 -64 304 -70 481 -22 152
41 206 41 358 0 88 -24 139 -32 200 -32 94 1 131 8 283 57 l113 36 132 -43
c212 -68 338 -66 550 6 40 13 82 24 95 24 13 0 76 -17 141 -37 108 -34 127
-37 242 -37 136 -1 201 13 269 60 l36 24 -295 0 -295 0 0 893 c0 490 1 895 3
900 1 4 306 6 677 5 l675 -3 0 -237z m-4681 -387 c65 -34 81 -89 83 -301 2
-136 0 -148 -23 -194 -34 -69 -72 -87 -164 -81 -38 3 -149 9 -245 13 -211 9
-252 23 -297 100 -26 44 -27 52 -25 167 3 146 7 170 41 217 49 69 74 76 306
88 261 12 282 12 324 -9z m53 -886 l-3 -185 -42 27 c-23 14 -60 38 -82 53 -22
15 -69 46 -105 70 -60 41 -263 191 -284 211 -6 5 101 9 255 9 l264 0 -3 -185z
m-367 -935 c0 -7 -6 -15 -12 -17 -8 -3 -13 4 -13 17 0 13 5 20 13 18 6 -3 12
-11 12 -18z m-55 -45 c-13 -16 -40 -9 -40 9 0 21 12 26 32 15 15 -8 17 -13 8
-24z m643 -52 c-122 -2 -324 -2 -450 0 -125 1 -25 2 222 2 248 0 350 -1 228
-2z m-573 -33 c0 -5 -4 -10 -9 -10 -6 0 -13 5 -16 10 -3 6 1 10 9 10 9 0 16
-4 16 -10z m230 -150 c0 -5 -4 -10 -9 -10 -6 0 -13 5 -16 10 -3 6 1 10 9 10 9
0 16 -4 16 -10z m-65 -29 c3 -5 1 -12 -5 -16 -5 -3 -10 1 -10 9 0 18 6 21 15
7z m-25 -52 c0 -5 -4 -9 -10 -9 -5 0 -10 7 -10 16 0 8 5 12 10 9 6 -3 10 -10
10 -16z m620 -520 c17 -17 29 -33 26 -36 -7 -8 -76 41 -76 55 0 20 17 14 50
-19z"/>
<path d="M6820 7416 c-14 -8 -45 -24 -70 -35 l-45 -19 395 -1 c346 0 391 2
363 14 -44 19 -88 24 -308 36 -104 5 -217 12 -250 15 -43 3 -67 0 -85 -10z"/>
<path d="M7621 6843 l-1 -393 160 0 160 0 0 146 c0 159 -10 180 -42 89 -25
-69 -62 -105 -111 -105 -49 0 -70 12 -95 52 -30 48 -43 162 -40 348 2 130 -1
175 -14 210 -15 43 -16 25 -17 -347z"/>
<path d="M3740 7000 c-25 -16 -56 -37 -70 -48 -14 -10 -41 -27 -59 -38 -19
-10 -42 -25 -50 -31 -9 -7 -39 -27 -67 -45 -90 -57 -168 -110 -197 -135 -37
-30 -51 -21 -44 28 3 22 2 39 -1 39 -10 -1 -184 -158 -200 -181 -13 -18 -29
-19 -393 -19 l-379 0 0 -150 0 -150 382 0 382 1 36 -42 c35 -40 38 -42 83 -37
66 8 134 59 170 128 26 51 28 61 23 133 l-5 78 41 37 c111 100 227 172 336
208 30 9 56 22 58 29 3 6 3 59 2 118 l-3 106 -45 -29z m-763 -562 c-3 -7 -5
-2 -5 12 0 14 2 19 5 13 2 -7 2 -19 0 -25z"/>
<path d="M6700 6010 c0 -5 12 -26 26 -47 35 -52 31 -134 -10 -187 l-27 -36
130 0 131 0 0 140 0 140 -125 0 c-73 0 -125 -4 -125 -10z"/>
<path d="M8370 5856 c0 -2 7 -6 15 -10 8 -3 15 -1 15 4 0 6 -7 10 -15 10 -8 0
-15 -2 -15 -4z"/>
<path d="M6865 5660 c-3 -5 -2 -10 4 -10 5 0 13 5 16 10 3 6 2 10 -4 10 -5 0
-13 -4 -16 -10z"/>
<path d="M6840 5651 c0 -6 4 -13 10 -16 6 -3 7 1 4 9 -7 18 -14 21 -14 7z"/>
<path d="M6206 5578 c3 -5 10 -6 15 -3 13 9 11 12 -6 12 -8 0 -12 -4 -9 -9z"/>
<path d="M4280 5341 c0 -6 4 -13 10 -16 6 -3 7 1 4 9 -7 18 -14 21 -14 7z"/>
<path d="M1904 5029 c-4 -7 -3 -9 4 -5 5 3 13 0 15 -6 4 -9 6 -10 6 -1 1 17
-16 25 -25 12z"/>
<path d="M1637 4989 c7 -7 15 -10 18 -7 3 3 -2 9 -12 12 -14 6 -15 5 -6 -5z"/>
<path d="M1497 4983 c-3 -5 -2 -15 2 -22 5 -7 11 -9 14 -4 3 5 2 15 -2 22 -5
7 -11 9 -14 4z"/>
<path d="M3530 3720 l0 -90 90 0 90 0 0 90 0 90 -90 0 -90 0 0 -90z"/>
<path d="M4857 3974 c-4 -4 -7 -45 -7 -91 l0 -84 93 3 92 3 0 85 0 85 -85 3
c-47 1 -89 0 -93 -4z"/>
<path d="M5304 3967 c-3 -8 -4 -47 -2 -88 l3 -74 93 -3 93 -3 -3 88 -3 88 -88
3 c-67 2 -89 0 -93 -11z"/>
<path d="M5070 3710 l0 -50 -49 0 -48 0 -7 -145 c-4 -79 -5 -149 -1 -155 3 -5
22 -10 41 -10 l34 0 0 50 0 50 130 0 130 0 0 -50 0 -50 40 0 41 0 -3 153 -3
152 -52 3 -53 3 0 50 0 49 -100 0 -100 0 0 -50z"/>
<path d="M6630 2830 c0 -179 4 -320 9 -320 13 0 40 45 57 93 8 23 21 99 29
169 15 136 26 167 76 216 47 46 105 62 228 62 134 1 242 20 312 56 l54 28 -40
7 c-22 4 -194 8 -382 8 l-343 1 0 -320z"/>
<path d="M3703 10124 c0 -16 13 -19 21 -5 3 5 0 11 -7 14 -8 3 -14 -1 -14 -9z"/>
<path d="M3680 10117 c0 -8 -8 -18 -17 -20 -17 -4 -17 -5 0 -6 18 -1 35 25 23
36 -3 4 -6 -1 -6 -10z"/>
<path d="M3635 10050 c3 -5 8 -10 11 -10 2 0 4 5 4 10 0 6 -5 10 -11 10 -5 0
-7 -4 -4 -10z"/>
<path d="M3388 9753 c7 -3 16 -2 19 1 4 3 -2 6 -13 5 -11 0 -14 -3 -6 -6z"/>
<path d="M3315 9631 c-9 -15 15 -25 28 -12 9 9 7 10 -7 5 -13 -5 -17 -4 -12 4
4 7 5 12 2 12 -3 0 -7 -4 -11 -9z"/>
<path d="M3208 9473 c7 -3 16 -2 19 1 4 3 -2 6 -13 5 -11 0 -14 -3 -6 -6z"/>
<path d="M4685 9410 c3 -5 8 -10 11 -10 2 0 4 5 4 10 0 6 -5 10 -11 10 -5 0
-7 -4 -4 -10z"/>
<path d="M3150 9391 c0 -6 4 -13 10 -16 6 -3 7 1 4 9 -7 18 -14 21 -14 7z"/>
<path d="M3105 9370 c-3 -5 1 -10 9 -10 8 0 18 5 21 10 3 6 -1 10 -9 10 -8 0
-18 -4 -21 -10z"/>
<path d="M4710 9340 c0 -5 5 -10 10 -10 6 0 10 5 10 10 0 6 -4 10 -10 10 -5 0
-10 -4 -10 -10z"/>
<path d="M2972 9184 c-11 -12 -9 -14 17 -12 23 2 28 5 19 15 -13 16 -20 16
-36 -3z"/>
<path d="M2865 8990 c-3 -6 1 -7 9 -4 18 7 21 14 7 14 -6 0 -13 -4 -16 -10z"/>
<path d="M2699 8828 c3 -22 6 -27 9 -14 3 13 6 15 12 7 5 -9 9 -6 13 9 4 15 2
20 -8 17 -7 -3 -17 -1 -22 4 -6 6 -8 -2 -4 -23z"/>
<path d="M2650 8766 c0 -2 7 -7 16 -10 8 -3 12 -2 9 4 -6 10 -25 14 -25 6z"/>
<path d="M2560 8630 c0 -6 7 -10 15 -10 8 0 15 2 15 4 0 2 -7 6 -15 10 -8 3
-15 1 -15 -4z"/>
<path d="M2455 8526 c-14 -10 -16 -17 -7 -32 11 -18 11 -18 12 4 0 13 4 21 9
17 5 -3 12 -1 15 4 10 16 -10 21 -29 7z"/>
<path d="M2080 7989 c0 -5 5 -7 10 -4 6 3 10 8 10 11 0 2 -4 4 -10 4 -5 0 -10
-5 -10 -11z"/>
<path d="M1923 7808 c1 -15 3 -25 6 -23 2 3 10 0 17 -5 9 -8 12 -4 10 15 -1
25 -15 36 -17 13 0 -7 -4 -4 -9 7 -8 17 -8 16 -7 -7z"/>
<path d="M1880 7749 c0 -5 5 -7 10 -4 6 3 10 8 10 11 0 2 -4 4 -10 4 -5 0 -10
-5 -10 -11z"/>
<path d="M502 5911 c-11 -6 -9 -9 6 -13 15 -4 19 -2 15 8 -6 16 -4 16 -21 5z"/>
<path d="M8921 4111 c0 -68 1 -122 3 -120 8 9 12 147 6 194 -6 37 -8 18 -9
-74z"/>
<path d="M1677 3349 c4 -13 8 -18 11 -10 2 7 -1 18 -6 23 -8 8 -9 4 -5 -13z"/>
</g>
</svg>
