<?xml version="1.0" standalone="no"?>
<!DOCTYPE svg PUBLIC "-//W3C//DTD SVG 20010904//EN"
 "http://www.w3.org/TR/2001/REC-SVG-20010904/DTD/svg10.dtd">
<svg version="1.0" xmlns="http://www.w3.org/2000/svg"
 width="225.000000pt" height="225.000000pt" viewBox="0 0 225.000000 225.000000"
 preserveAspectRatio="xMidYMid meet">
<metadata>
Created by potrace 1.14, written by Peter Selinger 2001-2017
</metadata>
<g transform="translate(0.000000,225.000000) scale(0.100000,-0.100000)"
fill="#000000" stroke="none">
<path d="M982 2083 c-7 -10 -10 -12 -7 -6 4 9 1 11 -10 7 -11 -5 -13 -10 -5
-19 9 -11 7 -12 -9 -8 -12 3 -21 10 -22 17 0 6 -3 3 -7 -6 -6 -16 -10 -16 -34
-4 -31 17 -41 11 -27 -16 5 -10 7 -22 4 -27 -3 -5 2 -17 11 -25 18 -19 15 -20
-23 -5 -63 25 -81 28 -79 12 1 -8 9 -19 17 -24 9 -6 -10 -8 -53 -5 -38 2 -68
-1 -68 -5 0 -5 5 -9 12 -9 6 0 8 -3 4 -7 -4 -5 -13 -8 -19 -8 -7 0 -13 -12
-15 -27 -3 -22 -9 -28 -28 -28 -24 0 -35 -20 -11 -20 6 -1 -3 -7 -21 -15 -18
-8 -31 -19 -27 -25 3 -5 0 -10 -7 -10 -7 0 -30 -15 -51 -34 -37 -33 -37 -33
-10 -29 21 3 16 -2 -19 -19 -27 -13 -48 -27 -48 -31 0 -5 5 -5 11 -1 7 4 4 -7
-7 -25 -10 -17 -23 -31 -28 -31 -6 0 -5 -5 2 -12 8 -8 15 -8 27 2 8 7 18 10
21 7 3 -3 -3 -12 -15 -19 -12 -7 -21 -16 -21 -21 0 -4 4 -5 10 -2 6 3 7 -1 4
-9 -3 -9 -1 -16 6 -16 6 0 -10 -22 -37 -50 -26 -27 -49 -54 -49 -60 -1 -5 -3
-12 -4 -15 -1 -3 -3 -9 -4 -14 0 -5 -36 -42 -79 -82 -42 -41 -77 -77 -77 -81
0 -16 22 -7 50 20 48 45 61 54 67 48 4 -3 -2 -15 -12 -26 -15 -17 -16 -20 -3
-20 9 0 18 7 22 15 3 8 11 15 17 15 8 0 8 -4 -1 -15 -7 -9 -8 -15 -2 -15 24 0
-5 -44 -59 -92 -33 -28 -59 -56 -59 -61 0 -6 15 3 33 20 33 33 63 43 85 30 7
-5 12 -3 12 3 0 6 5 8 10 5 6 -3 10 1 10 10 0 9 5 13 10 10 6 -3 10 -1 10 4 0
6 4 11 9 11 16 0 6 -30 -20 -59 -25 -30 -37 -57 -19 -46 6 3 10 -3 10 -15 0
-23 -36 -67 -47 -57 -3 4 -2 7 4 7 5 0 10 7 10 15 0 25 -11 17 -35 -27 -36
-68 -43 -105 -24 -113 16 -6 16 -7 0 -19 -12 -9 -14 -16 -6 -31 9 -15 8 -17
-5 -12 -18 7 -35 -12 -19 -22 5 -3 12 -17 13 -31 2 -14 10 -30 18 -36 10 -8
11 -13 3 -18 -8 -5 -8 -15 -1 -33 5 -14 6 -29 1 -32 -18 -12 -39 -86 -21 -76
4 3 10 -1 12 -7 3 -8 6 -6 6 5 1 10 5 16 11 12 5 -3 15 6 23 21 l14 27 14 -31
c9 -22 16 -27 22 -19 5 7 6 0 2 -17 -17 -79 -17 -83 0 -83 9 0 14 6 11 12 -4
11 14 14 82 16 12 1 22 5 22 10 0 5 4 9 9 9 5 0 8 -10 7 -23 -2 -12 1 -32 6
-42 8 -18 8 -18 4 2 -2 13 0 26 5 29 5 3 7 9 5 13 -3 4 1 8 9 8 14 0 19 -10
16 -29 0 -5 4 -8 10 -8 5 0 8 -4 5 -8 -3 -5 1 -9 9 -9 8 0 15 4 15 9 0 4 6 8
14 8 19 0 26 -46 9 -69 -8 -13 -10 -22 -3 -26 5 -3 10 -3 10 2 0 4 10 19 21
33 11 14 18 20 16 15 -3 -6 -8 -30 -12 -55 -4 -25 -9 -49 -12 -54 -4 -5 -1 -6
5 -2 7 4 12 13 12 19 0 7 7 20 15 30 19 26 56 14 48 -16 -11 -44 -9 -72 4 -86
8 -7 17 -11 20 -8 9 10 44 -13 37 -24 -3 -6 2 -20 13 -31 10 -12 12 -18 6 -14
-9 5 -11 2 -7 -8 3 -9 10 -13 15 -10 5 3 9 -3 9 -13 0 -12 8 -19 20 -20 24 -2
25 5 4 35 -26 38 -3 24 38 -23 44 -50 125 -108 139 -100 5 4 9 2 9 -3 0 -5 9
-12 20 -15 11 -3 20 -1 20 3 0 8 13 8 40 -3 8 -3 23 -5 34 -4 18 0 18 1 0 14
-10 7 -25 13 -35 13 -24 0 -53 48 -40 64 8 10 -3 27 -45 69 -46 48 -61 77 -38
77 3 0 2 -5 -1 -10 -3 -6 6 -15 20 -20 31 -12 55 -34 55 -50 0 -6 5 -8 12 -4
6 4 8 3 5 -3 -4 -6 4 -21 17 -34 13 -13 22 -28 20 -34 -3 -6 11 -17 31 -24 19
-7 35 -19 35 -27 0 -8 7 -15 15 -16 8 0 21 -1 28 -2 6 -1 11 5 9 12 -1 6 5 12
13 12 8 0 15 -5 15 -11 0 -6 8 -8 19 -4 13 4 24 -1 36 -17 l16 -23 19 23 c10
12 24 22 32 22 10 0 9 3 -2 10 -8 5 -22 7 -31 5 -26 -9 -69 12 -63 30 3 8 10
12 15 9 5 -3 9 0 9 7 0 7 3 10 6 6 4 -3 24 3 44 13 35 18 39 25 31 58 -2 7
-31 -27 -31 -35 0 -4 -11 -8 -24 -8 -13 0 -22 4 -19 8 3 5 -3 7 -12 5 -27 -5
-29 18 -3 27 42 13 48 13 48 2 0 -8 4 -7 9 2 6 9 19 12 37 8 17 -3 37 0 47 8
18 13 18 14 -5 37 l-23 23 -3 -23 c-3 -23 -4 -23 -23 -6 -24 21 -24 34 -1 34
13 0 14 2 3 9 -8 5 -9 11 -3 15 5 3 16 -1 23 -10 45 -55 155 -91 167 -55 3 8
0 11 -7 7 -19 -12 -26 25 -8 39 21 15 21 23 0 27 -9 2 -17 13 -18 25 -1 12 2
20 7 17 4 -3 8 4 8 15 0 23 15 28 26 9 4 -7 3 -8 -4 -4 -15 9 -14 -18 1 -62
12 -31 13 -31 25 -12 7 11 9 20 5 20 -5 0 -8 11 -8 25 0 18 4 24 15 20 12 -5
13 -4 3 6 -15 15 -17 49 -3 49 6 0 9 -3 9 -8 -3 -20 3 -21 31 -7 16 9 30 18
30 21 0 2 -8 0 -18 -5 -16 -9 -18 -6 -14 21 3 21 7 26 13 17 6 -10 9 -11 9 -1
0 6 5 12 11 12 5 0 8 -4 4 -9 -3 -5 -1 -12 5 -16 6 -3 14 4 19 17 8 18 10 19
10 5 1 -10 8 -20 16 -23 11 -5 12 -11 4 -25 -5 -10 -6 -19 -2 -19 4 -1 -5 -12
-22 -26 l-30 -26 28 6 c26 6 28 5 22 -16 -5 -16 9 -6 44 32 28 30 51 59 51 63
0 5 7 6 16 3 8 -3 13 -2 10 3 -3 5 3 11 14 14 11 3 24 16 29 29 8 18 10 19 10
5 1 -27 18 -11 26 22 5 25 10 29 31 25 15 -3 23 0 22 8 -2 7 4 12 12 13 8 0
15 5 16 10 0 6 3 17 7 25 10 27 16 110 7 110 -8 0 -26 -58 -22 -73 2 -5 -3 -7
-10 -4 -7 2 -11 12 -10 22 3 16 1 17 -11 7 -13 -11 -15 -9 -12 15 2 15 7 41
11 57 5 21 4 27 -5 22 -24 -15 -10 33 15 53 15 12 22 21 16 21 -6 0 -8 13 -5
33 9 48 3 117 -9 117 -4 0 -8 9 -8 20 0 11 -7 37 -16 58 -9 20 -18 47 -20 60
-2 19 0 21 12 11 11 -9 14 -8 14 5 0 10 5 14 10 11 18 -11 24 27 7 40 -9 7
-14 15 -10 18 3 4 1 7 -5 7 -7 0 -12 6 -12 13 0 7 -9 19 -20 27 -11 8 -20 19
-20 23 0 5 -16 27 -36 49 -33 37 -34 40 -17 53 12 9 22 10 30 4 8 -7 10 -5 6
10 -3 12 -11 21 -18 21 -6 0 -20 10 -31 22 -17 19 -17 21 -1 15 9 -4 17 -2 17
4 0 6 5 7 10 4 6 -3 10 -3 10 2 -1 19 -18 32 -54 38 -31 6 -35 10 -22 17 9 5
14 13 11 19 -4 5 3 9 14 9 12 0 21 7 21 15 0 8 -7 15 -15 15 -8 0 -15 4 -15
10 0 5 -3 9 -7 9 -5 -1 -17 -1 -28 0 -18 2 -18 3 5 16 25 14 25 15 4 21 -15 4
-20 11 -17 25 3 10 0 20 -6 20 -6 1 -15 3 -21 4 -5 1 -15 3 -21 4 -8 1 -8 5 0
15 9 10 7 17 -6 27 -15 12 -16 12 -8 -1 8 -13 6 -13 -8 -2 -9 8 -25 11 -37 7
-33 -10 -23 1 18 21 27 13 32 19 19 22 -9 2 -15 8 -12 13 6 8 -9 13 -29 10 -5
-1 -6 5 -3 12 7 19 -12 37 -31 30 -9 -4 -13 -2 -9 4 7 11 -40 37 -63 35 -10
-1 -11 1 -3 4 10 4 10 11 2 26 -6 11 -8 26 -5 33 3 8 1 17 -4 20 -6 4 -10 2
-10 -3 0 -5 -11 -7 -25 -4 -14 2 -25 9 -25 14 0 5 -4 6 -10 3 -6 -3 -7 1 -4 9
3 9 10 16 15 16 5 0 9 5 9 11 0 7 -10 9 -27 5 -51 -12 -88 -14 -103 -6 -23 12
-100 18 -106 9 -3 -5 -10 -9 -15 -9 -6 0 -7 5 -3 11 4 7 0 9 -14 5 -15 -5 -24
-1 -32 14 -6 11 -16 20 -22 20 -6 0 -8 -3 -5 -7 4 -3 -1 -12 -10 -19 -15 -10
-23 -9 -46 8 -18 13 -32 17 -36 11 -7 -13 -61 -14 -61 -2 0 15 -14 10 -28 -8z
m-68 -79 c5 -14 4 -15 -9 -4 -17 14 -19 20 -6 20 5 0 12 -7 15 -16z m916 -564
c0 -5 -5 -10 -11 -10 -5 0 -7 5 -4 10 3 6 8 10 11 10 2 0 4 -4 4 -10z m94
-434 c19 -40 21 -82 4 -92 -7 -5 -9 0 -6 14 4 13 0 23 -9 26 -10 4 -14 16 -11
36 3 17 1 30 -4 30 -4 0 -8 5 -8 10 0 21 19 8 34 -24z m-1618 -73 c-3 -16 -7
-43 -8 -60 -2 -33 -11 -42 -23 -24 -3 5 -1 12 5 16 6 4 8 11 4 16 -9 15 5 79
17 79 6 0 8 -12 5 -27z m-11 -114 c11 -17 -1 -21 -15 -4 -8 9 -8 15 -2 15 6 0
14 -5 17 -11z m-10 -148 c-3 -6 -11 -11 -17 -11 -6 0 -6 6 2 15 14 17 26 13
15 -4z m1680 -21 c-3 -5 -11 -10 -16 -10 -6 0 -7 5 -4 10 3 6 11 10 16 10 6 0
7 -4 4 -10z m-21 -31 c-8 -14 -24 -10 -24 6 0 9 6 12 15 9 8 -4 12 -10 9 -15z
m-202 -47 c3 -22 0 -28 -14 -29 -10 -1 -18 2 -18 8 0 5 5 9 10 9 6 0 10 9 10
20 0 29 7 24 12 -8z m68 -61 c0 -9 -64 -61 -76 -61 -4 0 8 16 27 35 34 35 49
43 49 26z m-1065 -141 c-7 13 -6 13 6 1 11 -10 11 -15 1 -18 -6 -3 -10 -9 -6
-14 8 -14 -3 -10 -20 7 -21 20 -10 40 12 22 13 -11 15 -11 7 2z m45 -71 c0 -6
-4 -7 -10 -4 -5 3 -10 11 -10 16 0 6 5 7 10 4 6 -3 10 -11 10 -16z m443 -65
c-8 -22 -30 -16 -29 9 1 13 -4 21 -12 19 -8 -1 -11 2 -7 8 9 15 55 -18 48 -36z
m-258 -14 c3 -5 16 -10 29 -10 13 0 23 -6 23 -15 0 -8 -5 -15 -11 -15 -15 1
-74 50 -59 50 6 0 15 -4 18 -10z"/>
<path d="M254 1381 c-47 -35 -127 -118 -99 -103 24 13 70 56 82 76 4 7 24 23
43 35 19 11 30 21 24 21 -6 0 -29 -13 -50 -29z"/>
<path d="M1980 1178 c0 -9 7 -22 17 -29 15 -13 15 -12 3 11 -17 34 -20 36 -20
18z"/>
<path d="M260 1115 c-7 -9 -10 -18 -7 -21 3 -3 10 4 17 15 13 25 8 27 -10 6z"/>
<path d="M2005 1121 c-9 -16 3 -48 21 -55 10 -4 13 -2 7 7 -4 6 -9 21 -10 31
-4 25 -9 30 -18 17z"/>
<path d="M2030 1031 c0 -6 4 -13 10 -16 6 -3 7 1 4 9 -7 18 -14 21 -14 7z"/>
<path d="M2035 990 c3 -5 1 -10 -5 -10 -13 0 -9 -30 6 -47 8 -8 9 -27 3 -59
-5 -27 -6 -51 -1 -56 8 -8 13 23 14 87 1 76 -2 95 -13 95 -5 0 -7 -4 -4 -10z"/>
<path d="M1993 804 c-3 -8 -1 -20 6 -27 8 -8 11 -4 11 16 0 30 -7 35 -17 11z"/>
<path d="M435 560 c-3 -5 -1 -10 4 -10 6 0 11 5 11 10 0 6 -2 10 -4 10 -3 0
-8 -4 -11 -10z"/>
<path d="M1966 544 c-5 -14 -4 -15 9 -4 17 14 19 20 6 20 -5 0 -12 -7 -15 -16z"/>
<path d="M380 520 c0 -5 5 -10 11 -10 5 0 7 5 4 10 -3 6 -8 10 -11 10 -2 0 -4
-4 -4 -10z"/>
<path d="M1934 488 c-6 -20 -16 -32 -31 -34 -18 -3 -21 0 -17 21 2 13 -1 27
-7 31 -7 4 -10 3 -7 -2 3 -5 -3 -25 -13 -44 -11 -19 -19 -31 -19 -26 0 5 -9 1
-20 -9 -20 -18 -21 -18 -14 1 5 13 0 10 -15 -8 -22 -27 -49 -40 -35 -16 4 7 3
8 -5 4 -6 -4 -9 -12 -5 -17 7 -12 -14 -39 -41 -49 -20 -9 -20 -9 0 -9 11 0 31
6 45 14 14 8 36 14 49 15 l24 0 -23 -25 c-32 -34 -21 -41 14 -8 24 22 26 28
14 37 -16 12 -13 36 4 36 6 0 8 -6 5 -13 -3 -7 1 -21 8 -30 12 -16 15 -14 41
20 36 48 64 97 69 123 6 32 -11 23 -21 -12z m-42 -68 c-22 -20 -42 -26 -42
-12 0 15 24 32 44 32 19 0 19 -1 -2 -20z"/>
<path d="M525 500 c-3 -5 -12 -7 -20 -3 -8 3 -15 0 -15 -5 0 -6 -9 -14 -20
-17 -24 -8 -27 -24 -4 -21 9 1 21 10 26 19 5 10 13 15 17 12 5 -2 14 2 21 10
7 8 10 15 7 15 -3 0 -8 -4 -12 -10z"/>
<path d="M358 473 c7 -3 16 -2 19 1 4 3 -2 6 -13 5 -11 0 -14 -3 -6 -6z"/>
<path d="M500 390 c0 -6 7 -10 15 -10 8 0 15 2 15 4 0 2 -7 6 -15 10 -8 3 -15
1 -15 -4z"/>
<path d="M1440 240 c0 -5 5 -10 11 -10 5 0 7 5 4 10 -3 6 -8 10 -11 10 -2 0
-4 -4 -4 -10z"/>
<path d="M1490 225 c7 -8 17 -15 22 -15 6 0 5 7 -2 15 -7 8 -17 15 -22 15 -6
0 -5 -7 2 -15z"/>
<path d="M851 143 c-2 -21 11 -43 25 -43 7 0 22 -9 33 -21 11 -12 25 -18 31
-14 7 4 -6 16 -31 30 -24 12 -46 31 -50 41 -4 11 -8 14 -8 7z"/>
<path d="M1423 133 c-7 -3 -13 -10 -13 -15 0 -6 3 -8 7 -5 3 4 12 2 18 -3 9
-7 20 -4 36 9 l24 20 -30 -1 c-16 -1 -36 -3 -42 -5z"/>
<path d="M1370 86 c0 -9 5 -16 10 -16 6 0 10 4 10 9 0 6 -4 13 -10 16 -5 3
-10 -1 -10 -9z"/>
</g>
</svg>
